<svg xmlns="http://www.w3.org/2000/svg" viewBox="0 0 600 400" width="600" height="400" preserveAspectRatio="xMidYMid slice"><defs><linearGradient id="bg" x1="0" y1="0" x2="0" y2="1"><stop offset="0%" stop-color="#1a2a44"/><stop offset="60%" stop-color="#3d5582"/><stop offset="100%" stop-color="#f5b87a"/></linearGradient></defs><rect width="600" height="400" fill="url(#bg)"/><circle cx="420.0" cy="180.0" r="40" fill="#FFE69C"/><polygon points="0,220.00000000000003 200,180.0 400,200.0 600,168.0 600,200.0 600,260.0 0,260.0" fill="#0A0A0A" opacity="0.6"/><circle cx="157" cy="265.05" r="5.36" fill="#A87045"/><rect x="153.65" y="269.74" width="6.7" height="26.8" fill="#A87045" rx="2.68"/><line x1="157" y1="278.45" x2="156.56" y2="298.1" stroke="#A87045" stroke-width="4.02" stroke-linecap="round"/><line x1="157" y1="278.45" x2="157.44" y2="298.1" stroke="#A87045" stroke-width="4.02" stroke-linecap="round"/><line x1="157" y1="295.2" x2="174.55" y2="318.65" stroke="#A87045" stroke-width="4.69" stroke-linecap="round"/><line x1="157" y1="295.2" x2="139.45" y2="318.65" stroke="#A87045" stroke-width="4.69" stroke-linecap="round"/><circle cx="140" cy="264.6" r="5.12" fill="#5A3820"/><rect x="136.8" y="269.08" width="6.4" height="25.6" fill="#5A3820" rx="2.56"/><line x1="140" y1="277.4" x2="126.52000000000001" y2="302.7" stroke="#5A3820" stroke-width="3.84" stroke-linecap="round"/><line x1="140" y1="277.4" x2="153.48" y2="302.7" stroke="#5A3820" stroke-width="3.84" stroke-linecap="round"/><line x1="140" y1="293.4" x2="164.6" y2="315.8" stroke="#5A3820" stroke-width="4.48" stroke-linecap="round"/><line x1="140" y1="293.4" x2="115.4" y2="315.8" stroke="#5A3820" stroke-width="4.48" stroke-linecap="round"/><circle cx="408" cy="273.45" r="3.44" fill="#5A3820"/><rect x="405.85" y="276.46" width="4.3" height="17.2" fill="#5A3820" rx="1.72"/><line x1="408" y1="282.05" x2="440.74" y2="303.15" stroke="#5A3820" stroke-width="2.58" stroke-linecap="round"/><line x1="408" y1="282.05" x2="375.26" y2="303.15" stroke="#5A3820" stroke-width="2.58" stroke-linecap="round"/><line x1="408" y1="292.8" x2="399.45" y2="307.85" stroke="#5A3820" stroke-width="3.0100000000000002" stroke-linecap="round"/><line x1="408" y1="292.8" x2="416.55" y2="307.85" stroke="#5A3820" stroke-width="3.0100000000000002" stroke-linecap="round"/><circle cx="419" cy="266.85" r="4.72" fill="#5C3A1E"/><rect x="416.05" y="270.98" width="5.9" height="23.6" fill="#5C3A1E" rx="2.36"/><line x1="419" y1="278.65" x2="404.62" y2="302.95" stroke="#5C3A1E" stroke-width="3.54" stroke-linecap="round"/><line x1="419" y1="278.65" x2="433.38" y2="302.95" stroke="#5C3A1E" stroke-width="3.54" stroke-linecap="round"/><line x1="419" y1="293.4" x2="442.85" y2="314.05" stroke="#5C3A1E" stroke-width="4.130000000000001" stroke-linecap="round"/><line x1="419" y1="293.4" x2="395.15" y2="314.05" stroke="#5C3A1E" stroke-width="4.130000000000001" stroke-linecap="round"/><circle cx="292" cy="261.7" r="4.64" fill="#A87045"/><rect x="289.1" y="265.76" width="5.800000000000001" height="23.200000000000003" fill="#A87045" rx="2.32"/><line x1="292" y1="273.3" x2="289.94" y2="291.15" stroke="#A87045" stroke-width="3.48" stroke-linecap="round"/><line x1="292" y1="273.3" x2="294.06" y2="291.15" stroke="#A87045" stroke-width="3.48" stroke-linecap="round"/><line x1="292" y1="287.8" x2="308.2" y2="308.1" stroke="#A87045" stroke-width="4.0600000000000005" stroke-linecap="round"/><line x1="292" y1="287.8" x2="275.8" y2="308.1" stroke="#A87045" stroke-width="4.0600000000000005" stroke-linecap="round"/><circle cx="51" cy="270.0" r="3.2" fill="#5C3A1E"/><rect x="49.0" y="272.8" width="4.0" height="16.0" fill="#5C3A1E" rx="1.6"/><line x1="51" y1="278.0" x2="33.2" y2="298.5" stroke="#5C3A1E" stroke-width="2.4" stroke-linecap="round"/><line x1="51" y1="278.0" x2="68.8" y2="298.5" stroke="#5C3A1E" stroke-width="2.4" stroke-linecap="round"/><line x1="51" y1="288.0" x2="72.0" y2="302.0" stroke="#5C3A1E" stroke-width="2.8000000000000003" stroke-linecap="round"/><line x1="51" y1="288.0" x2="30.0" y2="302.0" stroke="#5C3A1E" stroke-width="2.8000000000000003" stroke-linecap="round"/><circle cx="241" cy="263.45" r="5.04" fill="#5C3A1E"/><rect x="237.85" y="267.86" width="6.300000000000001" height="25.200000000000003" fill="#5C3A1E" rx="2.52"/><line x1="241" y1="276.05" x2="264.84000000000003" y2="294.9" stroke="#5C3A1E" stroke-width="3.78" stroke-linecap="round"/><line x1="241" y1="276.05" x2="217.16" y2="294.9" stroke="#5C3A1E" stroke-width="3.78" stroke-linecap="round"/><line x1="241" y1="291.8" x2="242.95" y2="313.85" stroke="#5C3A1E" stroke-width="4.41" stroke-linecap="round"/><line x1="241" y1="291.8" x2="239.05" y2="313.85" stroke="#5C3A1E" stroke-width="4.41" stroke-linecap="round"/><circle cx="468" cy="270.55" r="4.5600000000000005" fill="#D9A57E"/><rect x="465.15" y="274.54" width="5.7" height="22.8" fill="#D9A57E" rx="2.2800000000000002"/><line x1="468" y1="281.95" x2="465.76" y2="299.6" stroke="#D9A57E" stroke-width="3.42" stroke-linecap="round"/><line x1="468" y1="281.95" x2="470.24" y2="299.6" stroke="#D9A57E" stroke-width="3.42" stroke-linecap="round"/><line x1="468" y1="296.2" x2="484.05" y2="316.15" stroke="#D9A57E" stroke-width="3.99" stroke-linecap="round"/><line x1="468" y1="296.2" x2="451.95" y2="316.15" stroke="#D9A57E" stroke-width="3.99" stroke-linecap="round"/><circle cx="256" cy="256.6" r="5.12" fill="#5A3820"/><rect x="252.8" y="261.08" width="6.4" height="25.6" fill="#5A3820" rx="2.56"/><line x1="256" y1="269.4" x2="255.01999999999998" y2="288.45" stroke="#5A3820" stroke-width="3.84" stroke-linecap="round"/><line x1="256" y1="269.4" x2="256.98" y2="288.45" stroke="#5A3820" stroke-width="3.84" stroke-linecap="round"/><line x1="256" y1="285.4" x2="273.1" y2="307.8" stroke="#5A3820" stroke-width="4.48" stroke-linecap="round"/><line x1="256" y1="285.4" x2="238.9" y2="307.8" stroke="#5A3820" stroke-width="4.48" stroke-linecap="round"/><circle cx="42" cy="260.9" r="5.28" fill="#A87045"/><rect x="38.7" y="265.52" width="6.6000000000000005" height="26.400000000000002" fill="#A87045" rx="2.64"/><line x1="42" y1="274.1" x2="66.38" y2="293.55" stroke="#A87045" stroke-width="3.96" stroke-linecap="round"/><line x1="42" y1="274.1" x2="17.62" y2="293.55" stroke="#A87045" stroke-width="3.96" stroke-linecap="round"/><line x1="42" y1="290.6" x2="44.4" y2="313.7" stroke="#A87045" stroke-width="4.62" stroke-linecap="round"/><line x1="42" y1="290.6" x2="39.6" y2="313.7" stroke="#A87045" stroke-width="4.62" stroke-linecap="round"/><circle cx="323" cy="253.45" r="5.04" fill="#8B5A3C"/><rect x="319.85" y="257.86" width="6.300000000000001" height="25.200000000000003" fill="#8B5A3C" rx="2.52"/><line x1="323" y1="266.05" x2="309.34" y2="291.15" stroke="#8B5A3C" stroke-width="3.78" stroke-linecap="round"/><line x1="323" y1="266.05" x2="336.66" y2="291.15" stroke="#8B5A3C" stroke-width="3.78" stroke-linecap="round"/><line x1="323" y1="281.8" x2="347.45" y2="303.85" stroke="#8B5A3C" stroke-width="4.41" stroke-linecap="round"/><line x1="323" y1="281.8" x2="298.55" y2="303.85" stroke="#8B5A3C" stroke-width="4.41" stroke-linecap="round"/><circle cx="539" cy="268.35" r="3.92" fill="#7A4F32"/><rect x="536.55" y="271.78" width="4.9" height="19.6" fill="#7A4F32" rx="1.96"/><line x1="539" y1="278.15" x2="522.82" y2="300.45" stroke="#7A4F32" stroke-width="2.94" stroke-linecap="round"/><line x1="539" y1="278.15" x2="555.18" y2="300.45" stroke="#7A4F32" stroke-width="2.94" stroke-linecap="round"/><line x1="539" y1="290.4" x2="561.35" y2="307.55" stroke="#7A4F32" stroke-width="3.43" stroke-linecap="round"/><line x1="539" y1="290.4" x2="516.65" y2="307.55" stroke="#7A4F32" stroke-width="3.43" stroke-linecap="round"/><circle cx="537" cy="266.7" r="4.64" fill="#5C3A1E"/><rect x="534.1" y="270.76" width="5.800000000000001" height="23.200000000000003" fill="#5C3A1E" rx="2.32"/><line x1="537" y1="278.3" x2="522.44" y2="302.4" stroke="#5C3A1E" stroke-width="3.48" stroke-linecap="round"/><line x1="537" y1="278.3" x2="551.56" y2="302.4" stroke="#5C3A1E" stroke-width="3.48" stroke-linecap="round"/><line x1="537" y1="292.8" x2="560.7" y2="313.1" stroke="#5C3A1E" stroke-width="4.0600000000000005" stroke-linecap="round"/><line x1="537" y1="292.8" x2="513.3" y2="313.1" stroke="#5C3A1E" stroke-width="4.0600000000000005" stroke-linecap="round"/><circle cx="268" cy="270.95" r="4.24" fill="#3A2818"/><rect x="265.35" y="274.65999999999997" width="5.300000000000001" height="21.200000000000003" fill="#3A2818" rx="2.12"/><line x1="268" y1="281.55" x2="265.04" y2="298.4" stroke="#3A2818" stroke-width="3.1799999999999997" stroke-linecap="round"/><line x1="268" y1="281.55" x2="270.96" y2="298.4" stroke="#3A2818" stroke-width="3.1799999999999997" stroke-linecap="round"/><line x1="268" y1="294.8" x2="283.45" y2="313.35" stroke="#3A2818" stroke-width="3.7100000000000004" stroke-linecap="round"/><line x1="268" y1="294.8" x2="252.55" y2="313.35" stroke="#3A2818" stroke-width="3.7100000000000004" stroke-linecap="round"/><circle cx="403" cy="260.1" r="4.32" fill="#A87045"/><rect x="400.3" y="263.88" width="5.4" height="21.6" fill="#A87045" rx="2.16"/><line x1="403" y1="270.9" x2="425.22" y2="287.95" stroke="#A87045" stroke-width="3.2399999999999998" stroke-linecap="round"/><line x1="403" y1="270.9" x2="380.78" y2="287.95" stroke="#A87045" stroke-width="3.2399999999999998" stroke-linecap="round"/><line x1="403" y1="284.4" x2="403.6" y2="303.3" stroke="#A87045" stroke-width="3.7800000000000002" stroke-linecap="round"/><line x1="403" y1="284.4" x2="402.4" y2="303.3" stroke="#A87045" stroke-width="3.7800000000000002" stroke-linecap="round"/><circle cx="553" cy="272.65" r="4.08" fill="#5A3820"/><rect x="550.45" y="276.22" width="5.1000000000000005" height="20.400000000000002" fill="#5A3820" rx="2.04"/><line x1="553" y1="282.85" x2="587.18" y2="305.55" stroke="#5A3820" stroke-width="3.06" stroke-linecap="round"/><line x1="553" y1="282.85" x2="518.82" y2="305.55" stroke="#5A3820" stroke-width="3.06" stroke-linecap="round"/><line x1="553" y1="295.6" x2="545.65" y2="313.45" stroke="#5A3820" stroke-width="3.5700000000000003" stroke-linecap="round"/><line x1="553" y1="295.6" x2="560.35" y2="313.45" stroke="#5A3820" stroke-width="3.5700000000000003" stroke-linecap="round"/><circle cx="500" cy="263.35" r="3.92" fill="#C8956A"/><rect x="497.55" y="266.78" width="4.9" height="19.6" fill="#C8956A" rx="1.96"/><line x1="500" y1="273.15" x2="521.3199999999999" y2="289.2" stroke="#C8956A" stroke-width="2.94" stroke-linecap="round"/><line x1="500" y1="273.15" x2="478.68" y2="289.2" stroke="#C8956A" stroke-width="2.94" stroke-linecap="round"/><line x1="500" y1="285.4" x2="499.85" y2="302.55" stroke="#C8956A" stroke-width="3.43" stroke-linecap="round"/><line x1="500" y1="285.4" x2="500.15" y2="302.55" stroke="#C8956A" stroke-width="3.43" stroke-linecap="round"/><circle cx="192" cy="280.05" r="3.7600000000000002" fill="#5C3A1E"/><rect x="189.65" y="283.34" width="4.7" height="18.8" fill="#5C3A1E" rx="1.8800000000000001"/><line x1="192" y1="289.45" x2="212.96" y2="305.1" stroke="#5C3A1E" stroke-width="2.82" stroke-linecap="round"/><line x1="192" y1="289.45" x2="171.04" y2="305.1" stroke="#5C3A1E" stroke-width="2.82" stroke-linecap="round"/><line x1="192" y1="301.2" x2="191.55" y2="317.65" stroke="#5C3A1E" stroke-width="3.2900000000000005" stroke-linecap="round"/><line x1="192" y1="301.2" x2="192.45" y2="317.65" stroke="#5C3A1E" stroke-width="3.2900000000000005" stroke-linecap="round"/><circle cx="572" cy="281.05" r="3.7600000000000002" fill="#C8956A"/><rect x="569.65" y="284.34" width="4.7" height="18.8" fill="#C8956A" rx="1.8800000000000001"/><line x1="572" y1="290.45" x2="567.96" y2="306.1" stroke="#C8956A" stroke-width="2.82" stroke-linecap="round"/><line x1="572" y1="290.45" x2="576.04" y2="306.1" stroke="#C8956A" stroke-width="2.82" stroke-linecap="round"/><line x1="572" y1="302.2" x2="586.55" y2="318.65" stroke="#C8956A" stroke-width="3.2900000000000005" stroke-linecap="round"/><line x1="572" y1="302.2" x2="557.45" y2="318.65" stroke="#C8956A" stroke-width="3.2900000000000005" stroke-linecap="round"/><circle cx="381" cy="259.35" r="5.5200000000000005" fill="#7A4F32"/><rect x="377.55" y="264.18" width="6.9" height="27.6" fill="#7A4F32" rx="2.7600000000000002"/><line x1="381" y1="273.15" x2="418.42" y2="299.45" stroke="#7A4F32" stroke-width="4.14" stroke-linecap="round"/><line x1="381" y1="273.15" x2="343.58" y2="299.45" stroke="#7A4F32" stroke-width="4.14" stroke-linecap="round"/><line x1="381" y1="290.4" x2="376.35" y2="314.55" stroke="#7A4F32" stroke-width="4.83" stroke-linecap="round"/><line x1="381" y1="290.4" x2="385.65" y2="314.55" stroke="#7A4F32" stroke-width="4.83" stroke-linecap="round"/><circle cx="412" cy="264.75" r="5.2" fill="#3A2818"/><rect x="408.75" y="269.3" width="6.5" height="26.0" fill="#3A2818" rx="2.6"/><line x1="412" y1="277.75" x2="436.2" y2="297.0" stroke="#3A2818" stroke-width="3.9" stroke-linecap="round"/><line x1="412" y1="277.75" x2="387.8" y2="297.0" stroke="#3A2818" stroke-width="3.9" stroke-linecap="round"/><line x1="412" y1="294.0" x2="414.25" y2="316.75" stroke="#3A2818" stroke-width="4.550000000000001" stroke-linecap="round"/><line x1="412" y1="294.0" x2="409.75" y2="316.75" stroke="#3A2818" stroke-width="4.550000000000001" stroke-linecap="round"/><circle cx="456" cy="258.25" r="4.4" fill="#8B5A3C"/><rect x="453.25" y="262.1" width="5.5" height="22.0" fill="#8B5A3C" rx="2.2"/><line x1="456" y1="269.25" x2="478.4" y2="286.5" stroke="#8B5A3C" stroke-width="3.3" stroke-linecap="round"/><line x1="456" y1="269.25" x2="433.6" y2="286.5" stroke="#8B5A3C" stroke-width="3.3" stroke-linecap="round"/><line x1="456" y1="283.0" x2="456.75" y2="302.25" stroke="#8B5A3C" stroke-width="3.8500000000000005" stroke-linecap="round"/><line x1="456" y1="283.0" x2="455.25" y2="302.25" stroke="#8B5A3C" stroke-width="3.8500000000000005" stroke-linecap="round"/><circle cx="536" cy="270.25" r="4.4" fill="#8B5A3C"/><rect x="533.25" y="274.1" width="5.5" height="22.0" fill="#8B5A3C" rx="2.2"/><line x1="536" y1="281.25" x2="520.9" y2="304.75" stroke="#8B5A3C" stroke-width="3.3" stroke-linecap="round"/><line x1="536" y1="281.25" x2="551.1" y2="304.75" stroke="#8B5A3C" stroke-width="3.3" stroke-linecap="round"/><line x1="536" y1="295.0" x2="559.25" y2="314.25" stroke="#8B5A3C" stroke-width="3.8500000000000005" stroke-linecap="round"/><line x1="536" y1="295.0" x2="512.75" y2="314.25" stroke="#8B5A3C" stroke-width="3.8500000000000005" stroke-linecap="round"/><circle cx="374" cy="255.55" r="4.5600000000000005" fill="#8B5A3C"/><rect x="371.15" y="259.54" width="5.7" height="22.8" fill="#8B5A3C" rx="2.2800000000000002"/><line x1="374" y1="266.95" x2="359.26" y2="290.85" stroke="#8B5A3C" stroke-width="3.42" stroke-linecap="round"/><line x1="374" y1="266.95" x2="388.74" y2="290.85" stroke="#8B5A3C" stroke-width="3.42" stroke-linecap="round"/><line x1="374" y1="281.2" x2="397.55" y2="301.15" stroke="#8B5A3C" stroke-width="3.99" stroke-linecap="round"/><line x1="374" y1="281.2" x2="350.45" y2="301.15" stroke="#8B5A3C" stroke-width="3.99" stroke-linecap="round"/><circle cx="48" cy="260.0" r="4.8" fill="#3A2818"/><rect x="45.0" y="264.2" width="6.0" height="24.0" fill="#3A2818" rx="2.4"/><line x1="48" y1="272.0" x2="71.3" y2="290.25" stroke="#3A2818" stroke-width="3.5999999999999996" stroke-linecap="round"/><line x1="48" y1="272.0" x2="24.700000000000003" y2="290.25" stroke="#3A2818" stroke-width="3.5999999999999996" stroke-linecap="round"/><line x1="48" y1="287.0" x2="49.5" y2="308.0" stroke="#3A2818" stroke-width="4.2" stroke-linecap="round"/><line x1="48" y1="287.0" x2="46.5" y2="308.0" stroke="#3A2818" stroke-width="4.2" stroke-linecap="round"/><circle cx="113" cy="265.75" r="5.2" fill="#7A4F32"/><rect x="109.75" y="270.3" width="6.5" height="26.0" fill="#7A4F32" rx="2.6"/><line x1="113" y1="278.75" x2="149.7" y2="304.25" stroke="#7A4F32" stroke-width="3.9" stroke-linecap="round"/><line x1="113" y1="278.75" x2="76.3" y2="304.25" stroke="#7A4F32" stroke-width="3.9" stroke-linecap="round"/><line x1="113" y1="295.0" x2="107.75" y2="317.75" stroke="#7A4F32" stroke-width="4.550000000000001" stroke-linecap="round"/><line x1="113" y1="295.0" x2="118.25" y2="317.75" stroke="#7A4F32" stroke-width="4.550000000000001" stroke-linecap="round"/><circle cx="92" cy="249.05" r="5.36" fill="#5C3A1E"/><rect x="88.65" y="253.74" width="6.7" height="26.8" fill="#5C3A1E" rx="2.68"/><line x1="92" y1="262.45" x2="79.06" y2="288.35" stroke="#5C3A1E" stroke-width="4.02" stroke-linecap="round"/><line x1="92" y1="262.45" x2="104.94" y2="288.35" stroke="#5C3A1E" stroke-width="4.02" stroke-linecap="round"/><line x1="92" y1="279.2" x2="117.05" y2="302.65" stroke="#5C3A1E" stroke-width="4.69" stroke-linecap="round"/><line x1="92" y1="279.2" x2="66.95" y2="302.65" stroke="#5C3A1E" stroke-width="4.69" stroke-linecap="round"/><circle cx="34" cy="272.05" r="3.7600000000000002" fill="#7A4F32"/><rect x="31.65" y="275.34" width="4.7" height="18.8" fill="#7A4F32" rx="1.8800000000000001"/><line x1="34" y1="281.45" x2="67.46000000000001" y2="303.35" stroke="#7A4F32" stroke-width="2.82" stroke-linecap="round"/><line x1="34" y1="281.45" x2="0.5399999999999991" y2="303.35" stroke="#7A4F32" stroke-width="2.82" stroke-linecap="round"/><line x1="34" y1="293.2" x2="26.049999999999997" y2="309.65" stroke="#7A4F32" stroke-width="3.2900000000000005" stroke-linecap="round"/><line x1="34" y1="293.2" x2="41.95" y2="309.65" stroke="#7A4F32" stroke-width="3.2900000000000005" stroke-linecap="round"/><rect x="60.0" y="231.99999999999997" width="480.0" height="6" fill="#D7FF1E"/><text x="300.0" y="224.00000000000003" fill="#D7FF1E" text-anchor="middle" style="font-family:Barlow Condensed,Impact,sans-serif;font-weight:800;font-style:italic;font-size:18px;letter-spacing:0.1em">START</text><rect x="0" y="340" width="600" height="60" fill="#0A0A0A" opacity="0.55"/><rect x="0" y="340" width="6" height="60" fill="#D7FF1E"/><text x="20" y="372" fill="#FFFFFF" text-anchor="start" style="font-family:"Barlow Condensed","Helvetica Neue Condensed",Impact,sans-serif;font-weight:800;font-style:italic;font-size:22px;letter-spacing:0.01em;text-transform:uppercase">START LINE</text><text x="20" y="388" fill="#FFFFFF" opacity="0.7" text-anchor="start" style="font-family:"Inter","Helvetica Neue",sans-serif;font-weight:500;font-size:11px;letter-spacing:0.12em;text-transform:uppercase">7:00 AM · Highway 154</text><g opacity="0.05"><circle cx="114" cy="12" r="1.0" fill="white"/><circle cx="281" cy="125" r="0.6" fill="white"/><circle cx="142" cy="377" r="0.6" fill="white"/><circle cx="558" cy="44" r="1.0" fill="white"/><circle cx="432" cy="16" r="0.6" fill="white"/><circle cx="95" cy="111" r="0.6" fill="white"/><circle cx="517" cy="308" r="0.6" fill="white"/><circle cx="574" cy="101" r="1.0" fill="white"/><circle cx="558" cy="214" r="0.6" fill="white"/><circle cx="459" cy="301" r="0.8" fill="white"/><circle cx="6" cy="388" r="0.6" fill="white"/><circle cx="432" cy="174" r="0.8" fill="white"/><circle cx="159" cy="110" r="0.8" fill="white"/><circle cx="104" cy="47" r="0.8" fill="white"/><circle cx="99" cy="183" r="0.8" fill="white"/><circle cx="270" cy="22" r="1.0" fill="white"/><circle cx="470" cy="274" r="0.6" fill="white"/><circle cx="387" cy="40" r="1.0" fill="white"/><circle cx="300" cy="321" r="1.0" fill="white"/><circle cx="370" cy="295" r="0.6" fill="white"/><circle cx="71" cy="23" r="1.0" fill="white"/><circle cx="233" cy="395" r="0.8" fill="white"/><circle cx="81" cy="119" r="0.6" fill="white"/><circle cx="389" cy="142" r="0.8" fill="white"/><circle cx="373" cy="83" r="0.8" fill="white"/><circle cx="363" cy="107" r="1.0" fill="white"/><circle cx="273" cy="359" r="1.0" fill="white"/><circle cx="73" cy="311" r="1.0" fill="white"/><circle cx="175" cy="273" r="1.0" fill="white"/><circle cx="250" cy="83" r="0.8" fill="white"/><circle cx="388" cy="138" r="1.0" fill="white"/><circle cx="570" cy="112" r="1.0" fill="white"/><circle cx="332" cy="393" r="0.6" fill="white"/><circle cx="234" cy="16" r="0.8" fill="white"/><circle cx="410" cy="137" r="0.6" fill="white"/><circle cx="216" cy="290" r="1.0" fill="white"/><circle cx="322" cy="108" r="1.0" fill="white"/><circle cx="511" cy="202" r="1.0" fill="white"/><circle cx="469" cy="73" r="0.8" fill="white"/><circle cx="142" cy="126" r="1.0" fill="white"/><circle cx="574" cy="275" r="0.8" fill="white"/><circle cx="598" cy="219" r="1.0" fill="white"/><circle cx="408" cy="185" r="0.6" fill="white"/><circle cx="141" cy="260" r="0.8" fill="white"/><circle cx="93" cy="386" r="0.6" fill="white"/><circle cx="112" cy="78" r="1.0" fill="white"/><circle cx="163" cy="348" r="0.8" fill="white"/><circle cx="65" cy="197" r="0.8" fill="white"/><circle cx="479" cy="270" r="0.8" fill="white"/><circle cx="566" cy="5" r="1.0" fill="white"/><circle cx="117" cy="349" r="1.0" fill="white"/><circle cx="273" cy="393" r="1.0" fill="white"/><circle cx="348" cy="57" r="0.8" fill="white"/><circle cx="445" cy="80" r="0.8" fill="white"/><circle cx="3" cy="369" r="1.0" fill="white"/><circle cx="269" cy="256" r="0.6" fill="white"/><circle cx="519" cy="54" r="1.0" fill="white"/><circle cx="305" cy="327" r="1.0" fill="white"/><circle cx="203" cy="78" r="0.8" fill="white"/><circle cx="165" cy="276" r="1.0" fill="white"/><circle cx="0" cy="306" r="0.8" fill="white"/><circle cx="500" cy="9" r="0.6" fill="white"/><circle cx="371" cy="157" r="0.6" fill="white"/><circle cx="59" cy="123" r="1.0" fill="white"/><circle cx="80" cy="43" r="1.0" fill="white"/><circle cx="497" cy="35" r="1.0" fill="white"/><circle cx="128" cy="65" r="1.0" fill="white"/><circle cx="486" cy="281" r="0.6" fill="white"/><circle cx="271" cy="270" r="1.0" fill="white"/><circle cx="433" cy="108" r="1.0" fill="white"/><circle cx="205" cy="365" r="0.8" fill="white"/><circle cx="408" cy="343" r="1.0" fill="white"/><circle cx="382" cy="224" r="1.0" fill="white"/><circle cx="462" cy="61" r="0.6" fill="white"/><circle cx="230" cy="32" r="0.8" fill="white"/><circle cx="21" cy="301" r="1.0" fill="white"/><circle cx="235" cy="301" r="0.6" fill="white"/><circle cx="7" cy="36" r="1.0" fill="white"/><circle cx="60" cy="117" r="0.6" fill="white"/><circle cx="32" cy="169" r="0.6" fill="white"/><circle cx="526" cy="121" r="0.8" fill="white"/><circle cx="497" cy="109" r="1.0" fill="white"/><circle cx="135" cy="370" r="1.0" fill="white"/><circle cx="590" cy="242" r="0.6" fill="white"/><circle cx="484" cy="208" r="0.6" fill="white"/><circle cx="96" cy="49" r="1.0" fill="white"/><circle cx="441" cy="181" r="0.8" fill="white"/><circle cx="420" cy="239" r="1.0" fill="white"/><circle cx="55" cy="344" r="1.0" fill="white"/><circle cx="100" cy="31" r="0.8" fill="white"/><circle cx="347" cy="55" r="0.6" fill="white"/><circle cx="196" cy="97" r="1.0" fill="white"/><circle cx="459" cy="71" r="0.8" fill="white"/><circle cx="187" cy="142" r="0.8" fill="white"/><circle cx="255" cy="38" r="0.8" fill="white"/><circle cx="563" cy="50" r="0.6" fill="white"/><circle cx="553" cy="7" r="0.6" fill="white"/><circle cx="242" cy="85" r="0.8" fill="white"/><circle cx="497" cy="246" r="0.6" fill="white"/><circle cx="410" cy="30" r="0.6" fill="white"/><circle cx="388" cy="1" r="0.8" fill="white"/><circle cx="271" cy="232" r="0.8" fill="white"/><circle cx="433" cy="356" r="1.0" fill="white"/><circle cx="569" cy="338" r="1.0" fill="white"/><circle cx="498" cy="79" r="0.6" fill="white"/><circle cx="303" cy="111" r="0.6" fill="white"/><circle cx="593" cy="376" r="1.0" fill="white"/><circle cx="62" cy="382" r="0.8" fill="white"/><circle cx="58" cy="25" r="1.0" fill="white"/><circle cx="488" cy="257" r="1.0" fill="white"/><circle cx="161" cy="29" r="1.0" fill="white"/><circle cx="82" cy="95" r="0.6" fill="white"/><circle cx="69" cy="345" r="0.6" fill="white"/><circle cx="413" cy="61" r="1.0" fill="white"/><circle cx="252" cy="296" r="1.0" fill="white"/><circle cx="40" cy="317" r="0.6" fill="white"/><circle cx="429" cy="336" r="1.0" fill="white"/><circle cx="578" cy="267" r="0.8" fill="white"/><circle cx="267" cy="104" r="1.0" fill="white"/><circle cx="321" cy="122" r="0.8" fill="white"/></g></svg>