<svg xmlns="http://www.w3.org/2000/svg" viewBox="0 0 600 400" width="600" height="400" preserveAspectRatio="xMidYMid slice"><defs><linearGradient id="bg" x1="0" y1="0" x2="0" y2="1"><stop offset="0%" stop-color="#5C8AC4"/><stop offset="50%" stop-color="#8FC2E8"/><stop offset="100%" stop-color="#3D6BA0"/></linearGradient></defs><rect width="600" height="400" fill="url(#bg)"/><rect x="0" y="220.00000000000003" width="600" height="100.0" fill="#2A5A8A"/><line x1="0" y1="231.99999999999997" x2="600" y2="233.99999999999997" stroke="#FFFFFF" stroke-width="1" opacity="0.2"/><line x1="0" y1="239.99999999999997" x2="600" y2="241.99999999999997" stroke="#FFFFFF" stroke-width="1" opacity="0.2"/><line x1="0" y1="247.99999999999997" x2="600" y2="249.99999999999997" stroke="#FFFFFF" stroke-width="1" opacity="0.2"/><line x1="0" y1="255.99999999999997" x2="600" y2="258.0" stroke="#FFFFFF" stroke-width="1" opacity="0.2"/><line x1="0" y1="264.0" x2="600" y2="266.0" stroke="#FFFFFF" stroke-width="1" opacity="0.2"/><line x1="0" y1="272.0" x2="600" y2="274.0" stroke="#FFFFFF" stroke-width="1" opacity="0.2"/><line x1="0" y1="280.0" x2="600" y2="282.0" stroke="#FFFFFF" stroke-width="1" opacity="0.2"/><line x1="0" y1="288.0" x2="600" y2="290.0" stroke="#FFFFFF" stroke-width="1" opacity="0.2"/><polygon points="0,220.00000000000003 0,400 360.0,400 420.0,240.0 600,220.00000000000003 600,400 0,400" fill="#7A5A3C" opacity="0.85"/><polygon points="0,340.0 600,312.0 600,328.0 0,360.0" fill="#0A0A0A"/><circle cx="120.0" cy="288.75" r="5.2" fill="#5C3A1E"/><rect x="116.75" y="293.3" width="6.5" height="26.0" fill="#5C3A1E" rx="2.6"/><line x1="120.0" y1="301.75" x2="106.69999999999999" y2="327.25" stroke="#5C3A1E" stroke-width="3.9" stroke-linecap="round"/><line x1="120.0" y1="301.75" x2="133.3" y2="327.25" stroke="#5C3A1E" stroke-width="3.9" stroke-linecap="round"/><line x1="120.0" y1="318.0" x2="144.75" y2="340.75" stroke="#5C3A1E" stroke-width="4.550000000000001" stroke-linecap="round"/><line x1="120.0" y1="318.0" x2="95.25" y2="340.75" stroke="#5C3A1E" stroke-width="4.550000000000001" stroke-linecap="round"/><circle cx="240.0" cy="285.0" r="4.8" fill="#C8956A"/><rect x="237.0" y="289.2" width="6.0" height="24.0" fill="#C8956A" rx="2.4"/><line x1="240.0" y1="297.0" x2="275.8" y2="321.5" stroke="#C8956A" stroke-width="3.5999999999999996" stroke-linecap="round"/><line x1="240.0" y1="297.0" x2="204.2" y2="321.5" stroke="#C8956A" stroke-width="3.5999999999999996" stroke-linecap="round"/><line x1="240.0" y1="312.0" x2="234.0" y2="333.0" stroke="#C8956A" stroke-width="4.2" stroke-linecap="round"/><line x1="240.0" y1="312.0" x2="246.0" y2="333.0" stroke="#C8956A" stroke-width="4.2" stroke-linecap="round"/><circle cx="360.0" cy="281.25" r="4.4" fill="#3A2818"/><rect x="357.25" y="285.1" width="5.5" height="22.0" fill="#3A2818" rx="2.2"/><line x1="360.0" y1="292.25" x2="349.9" y2="313.25" stroke="#3A2818" stroke-width="3.3" stroke-linecap="round"/><line x1="360.0" y1="292.25" x2="370.1" y2="313.25" stroke="#3A2818" stroke-width="3.3" stroke-linecap="round"/><line x1="360.0" y1="306.0" x2="380.25" y2="325.25" stroke="#3A2818" stroke-width="3.8500000000000005" stroke-linecap="round"/><line x1="360.0" y1="306.0" x2="339.75" y2="325.25" stroke="#3A2818" stroke-width="3.8500000000000005" stroke-linecap="round"/><circle cx="480.0" cy="277.5" r="4.0" fill="#A87045"/><rect x="477.5" y="281.0" width="5.0" height="20.0" fill="#A87045" rx="2.0"/><line x1="480.0" y1="287.5" x2="504.0" y2="305.0" stroke="#A87045" stroke-width="3.0" stroke-linecap="round"/><line x1="480.0" y1="287.5" x2="456.0" y2="305.0" stroke="#A87045" stroke-width="3.0" stroke-linecap="round"/><line x1="480.0" y1="300.0" x2="478.5" y2="317.5" stroke="#A87045" stroke-width="3.5000000000000004" stroke-linecap="round"/><line x1="480.0" y1="300.0" x2="481.5" y2="317.5" stroke="#A87045" stroke-width="3.5000000000000004" stroke-linecap="round"/><rect x="0" y="340" width="600" height="60" fill="#0A0A0A" opacity="0.55"/><rect x="0" y="340" width="6" height="60" fill="#D7FF1E"/><text x="20" y="372" fill="#FFFFFF" text-anchor="start" style="font-family:"Barlow Condensed","Helvetica Neue Condensed",Impact,sans-serif;font-weight:800;font-style:italic;font-size:22px;letter-spacing:0.01em;text-transform:uppercase">MILE 2</text><text x="20" y="388" fill="#FFFFFF" opacity="0.7" text-anchor="start" style="font-family:"Inter","Helvetica Neue",sans-serif;font-weight:500;font-size:11px;letter-spacing:0.12em;text-transform:uppercase">Coastal climb</text><g opacity="0.05"><circle cx="114" cy="12" r="1.0" fill="white"/><circle cx="281" cy="125" r="0.6" fill="white"/><circle cx="142" cy="377" r="0.6" fill="white"/><circle cx="558" cy="44" r="1.0" fill="white"/><circle cx="432" cy="16" r="0.6" fill="white"/><circle cx="95" cy="111" r="0.6" fill="white"/><circle cx="517" cy="308" r="0.6" fill="white"/><circle cx="574" cy="101" r="1.0" fill="white"/><circle cx="558" cy="214" r="0.6" fill="white"/><circle cx="459" cy="301" r="0.8" fill="white"/><circle cx="6" cy="388" r="0.6" fill="white"/><circle cx="432" cy="174" r="0.8" fill="white"/><circle cx="159" cy="110" r="0.8" fill="white"/><circle cx="104" cy="47" r="0.8" fill="white"/><circle cx="99" cy="183" r="0.8" fill="white"/><circle cx="270" cy="22" r="1.0" fill="white"/><circle cx="470" cy="274" r="0.6" fill="white"/><circle cx="387" cy="40" r="1.0" fill="white"/><circle cx="300" cy="321" r="1.0" fill="white"/><circle cx="370" cy="295" r="0.6" fill="white"/><circle cx="71" cy="23" r="1.0" fill="white"/><circle cx="233" cy="395" r="0.8" fill="white"/><circle cx="81" cy="119" r="0.6" fill="white"/><circle cx="389" cy="142" r="0.8" fill="white"/><circle cx="373" cy="83" r="0.8" fill="white"/><circle cx="363" cy="107" r="1.0" fill="white"/><circle cx="273" cy="359" r="1.0" fill="white"/><circle cx="73" cy="311" r="1.0" fill="white"/><circle cx="175" cy="273" r="1.0" fill="white"/><circle cx="250" cy="83" r="0.8" fill="white"/><circle cx="388" cy="138" r="1.0" fill="white"/><circle cx="570" cy="112" r="1.0" fill="white"/><circle cx="332" cy="393" r="0.6" fill="white"/><circle cx="234" cy="16" r="0.8" fill="white"/><circle cx="410" cy="137" r="0.6" fill="white"/><circle cx="216" cy="290" r="1.0" fill="white"/><circle cx="322" cy="108" r="1.0" fill="white"/><circle cx="511" cy="202" r="1.0" fill="white"/><circle cx="469" cy="73" r="0.8" fill="white"/><circle cx="142" cy="126" r="1.0" fill="white"/><circle cx="574" cy="275" r="0.8" fill="white"/><circle cx="598" cy="219" r="1.0" fill="white"/><circle cx="408" cy="185" r="0.6" fill="white"/><circle cx="141" cy="260" r="0.8" fill="white"/><circle cx="93" cy="386" r="0.6" fill="white"/><circle cx="112" cy="78" r="1.0" fill="white"/><circle cx="163" cy="348" r="0.8" fill="white"/><circle cx="65" cy="197" r="0.8" fill="white"/><circle cx="479" cy="270" r="0.8" fill="white"/><circle cx="566" cy="5" r="1.0" fill="white"/><circle cx="117" cy="349" r="1.0" fill="white"/><circle cx="273" cy="393" r="1.0" fill="white"/><circle cx="348" cy="57" r="0.8" fill="white"/><circle cx="445" cy="80" r="0.8" fill="white"/><circle cx="3" cy="369" r="1.0" fill="white"/><circle cx="269" cy="256" r="0.6" fill="white"/><circle cx="519" cy="54" r="1.0" fill="white"/><circle cx="305" cy="327" r="1.0" fill="white"/><circle cx="203" cy="78" r="0.8" fill="white"/><circle cx="165" cy="276" r="1.0" fill="white"/><circle cx="0" cy="306" r="0.8" fill="white"/><circle cx="500" cy="9" r="0.6" fill="white"/><circle cx="371" cy="157" r="0.6" fill="white"/><circle cx="59" cy="123" r="1.0" fill="white"/><circle cx="80" cy="43" r="1.0" fill="white"/><circle cx="497" cy="35" r="1.0" fill="white"/><circle cx="128" cy="65" r="1.0" fill="white"/><circle cx="486" cy="281" r="0.6" fill="white"/><circle cx="271" cy="270" r="1.0" fill="white"/><circle cx="433" cy="108" r="1.0" fill="white"/><circle cx="205" cy="365" r="0.8" fill="white"/><circle cx="408" cy="343" r="1.0" fill="white"/><circle cx="382" cy="224" r="1.0" fill="white"/><circle cx="462" cy="61" r="0.6" fill="white"/><circle cx="230" cy="32" r="0.8" fill="white"/><circle cx="21" cy="301" r="1.0" fill="white"/><circle cx="235" cy="301" r="0.6" fill="white"/><circle cx="7" cy="36" r="1.0" fill="white"/><circle cx="60" cy="117" r="0.6" fill="white"/><circle cx="32" cy="169" r="0.6" fill="white"/><circle cx="526" cy="121" r="0.8" fill="white"/><circle cx="497" cy="109" r="1.0" fill="white"/><circle cx="135" cy="370" r="1.0" fill="white"/><circle cx="590" cy="242" r="0.6" fill="white"/><circle cx="484" cy="208" r="0.6" fill="white"/><circle cx="96" cy="49" r="1.0" fill="white"/><circle cx="441" cy="181" r="0.8" fill="white"/><circle cx="420" cy="239" r="1.0" fill="white"/><circle cx="55" cy="344" r="1.0" fill="white"/><circle cx="100" cy="31" r="0.8" fill="white"/><circle cx="347" cy="55" r="0.6" fill="white"/><circle cx="196" cy="97" r="1.0" fill="white"/><circle cx="459" cy="71" r="0.8" fill="white"/><circle cx="187" cy="142" r="0.8" fill="white"/><circle cx="255" cy="38" r="0.8" fill="white"/><circle cx="563" cy="50" r="0.6" fill="white"/><circle cx="553" cy="7" r="0.6" fill="white"/><circle cx="242" cy="85" r="0.8" fill="white"/><circle cx="497" cy="246" r="0.6" fill="white"/><circle cx="410" cy="30" r="0.6" fill="white"/><circle cx="388" cy="1" r="0.8" fill="white"/><circle cx="271" cy="232" r="0.8" fill="white"/><circle cx="433" cy="356" r="1.0" fill="white"/><circle cx="569" cy="338" r="1.0" fill="white"/><circle cx="498" cy="79" r="0.6" fill="white"/><circle cx="303" cy="111" r="0.6" fill="white"/><circle cx="593" cy="376" r="1.0" fill="white"/><circle cx="62" cy="382" r="0.8" fill="white"/><circle cx="58" cy="25" r="1.0" fill="white"/><circle cx="488" cy="257" r="1.0" fill="white"/><circle cx="161" cy="29" r="1.0" fill="white"/><circle cx="82" cy="95" r="0.6" fill="white"/><circle cx="69" cy="345" r="0.6" fill="white"/><circle cx="413" cy="61" r="1.0" fill="white"/><circle cx="252" cy="296" r="1.0" fill="white"/><circle cx="40" cy="317" r="0.6" fill="white"/><circle cx="429" cy="336" r="1.0" fill="white"/><circle cx="578" cy="267" r="0.8" fill="white"/><circle cx="267" cy="104" r="1.0" fill="white"/><circle cx="321" cy="122" r="0.8" fill="white"/></g></svg>