<svg xmlns="http://www.w3.org/2000/svg" viewBox="0 0 600 400" width="600" height="400" preserveAspectRatio="xMidYMid slice"><defs><linearGradient id="bg" x1="0" y1="0" x2="0" y2="1"><stop offset="0%" stop-color="#3A2D1F"/><stop offset="70%" stop-color="#A87045"/><stop offset="100%" stop-color="#F5C74A"/></linearGradient></defs><rect width="600" height="400" fill="url(#bg)"/><circle cx="510.0" cy="220.00000000000003" r="35" fill="#FFE69C" opacity="0.9"/><polygon points="0,260.0 250,200.0 500,240.0 600,220.00000000000003 600,300.0 0,300.0" fill="#0A0A0A" opacity="0.6"/><rect x="0" y="300.0" width="600" height="40.0" fill="#5C4A2E"/><rect x="0" y="340.0" width="600" height="60.0" fill="#0A0A0A"/><path d="M61.599999999999994,329.6 L68.0,318.4 Q77.6,308.8 100.0,305.6 L122.4,300.8 Q144.8,297.6 167.2,302.4 L188.0,308.8 Q200.8,313.6 202.4,321.6 L204.0,329.6 Z" fill="#0A0A0A" stroke="#D7FF1E" stroke-width="1.5"/><path d="M188.0,308.8 L205.60000000000002,305.6 L207.2,310.4 L200.8,313.6 Z" fill="#0A0A0A" stroke="#D7FF1E" stroke-width="1.5"/><path d="M90.4,306.56 Q103.2,300.8 122.4,301.44 L148.0,300.8 Q160.8,301.44 173.6,306.56 L173.6,307.84 L90.4,307.84 Z" fill="#D7FF1E" opacity="0.25"/><circle cx="90.4" cy="331.2" r="12.16" fill="#0A0A0A" stroke="#D7FF1E" stroke-width="2"/><circle cx="90.4" cy="331.2" r="5.76" fill="#D7FF1E" opacity="0.4"/><circle cx="178.4" cy="331.2" r="12.16" fill="#0A0A0A" stroke="#D7FF1E" stroke-width="2"/><circle cx="178.4" cy="331.2" r="5.76" fill="#D7FF1E" opacity="0.4"/><line x1="133.6" y1="302.4" x2="135.2" y2="321.6" stroke="#D7FF1E" stroke-width="1.5" opacity="0.6"/><path d="M270.0,326.0 L276.0,317.0 Q285.0,309.5 306.0,306.5 L354.0,306.5 Q375.0,309.5 388.5,318.5 L391.5,326.0 Z" fill="#0A0A0A" stroke="#D7FF1E" stroke-width="1.5"/><path d="M315.0,306.5 L321.0,300.5 L339.0,300.5 L345.0,306.5 Z" fill="#D7FF1E" opacity="0.25" stroke="#D7FF1E" stroke-width="1"/><rect x="312.0" y="306.5" width="36.0" height="4.5" fill="#0A0A0A" opacity="0.7"/><circle cx="295.5" cy="327.5" r="10.2" fill="#0A0A0A" stroke="#D7FF1E" stroke-width="2"/><circle cx="295.5" cy="327.5" r="4.8" fill="#D7FF1E" opacity="0.4"/><circle cx="367.5" cy="327.5" r="10.2" fill="#0A0A0A" stroke="#D7FF1E" stroke-width="2"/><circle cx="367.5" cy="327.5" r="4.8" fill="#D7FF1E" opacity="0.4"/><line x1="276.0" y1="318.5" x2="388.5" y2="318.5" stroke="#D7FF1E" stroke-width="1" opacity="0.5"/><path d="M445.6,323.0 L448.4,317.4 L459.6,311.8 L482.0,309.0 Q496.0,299.2 521.2,299.2 L546.4,306.2 L571.6,314.6 L574.4,323.0 Z" fill="#0A0A0A" stroke="#D7FF1E" stroke-width="1.5"/><path d="M496.0,300.6 L519.8,300.6 Q538.0,300.6 545.0,306.2 L545.0,308.16 L496.0,309.0 Z" fill="#D7FF1E" opacity="0.25"/><path d="M483.4,309.0 L494.6,302.0 L496.0,308.16 Z" fill="#D7FF1E" opacity="0.25"/><circle cx="470.8" cy="324.4" r="10.080000000000002" fill="#0A0A0A" stroke="#D7FF1E" stroke-width="2"/><circle cx="470.8" cy="324.4" r="4.760000000000001" fill="#D7FF1E" opacity="0.4"/><circle cx="553.4" cy="324.4" r="10.080000000000002" fill="#0A0A0A" stroke="#D7FF1E" stroke-width="2"/><circle cx="553.4" cy="324.4" r="4.760000000000001" fill="#D7FF1E" opacity="0.4"/><circle cx="538.0" cy="317.4" r="1.12" fill="#FF3B1F"/><rect x="0" y="340" width="600" height="60" fill="#0A0A0A" opacity="0.55"/><rect x="0" y="340" width="6" height="60" fill="#D7FF1E"/><text x="20" y="372" fill="#FFFFFF" text-anchor="start" style="font-family:"Barlow Condensed","Helvetica Neue Condensed",Impact,sans-serif;font-weight:800;font-style:italic;font-size:22px;letter-spacing:0.01em;text-transform:uppercase">ROADSIDE</text><text x="20" y="388" fill="#FFFFFF" opacity="0.7" text-anchor="start" style="font-family:"Inter","Helvetica Neue",sans-serif;font-weight:500;font-size:11px;letter-spacing:0.12em;text-transform:uppercase">Porsches at El Capitan</text><g opacity="0.05"><circle cx="114" cy="12" r="1.0" fill="white"/><circle cx="281" cy="125" r="0.6" fill="white"/><circle cx="142" cy="377" r="0.6" fill="white"/><circle cx="558" cy="44" r="1.0" fill="white"/><circle cx="432" cy="16" r="0.6" fill="white"/><circle cx="95" cy="111" r="0.6" fill="white"/><circle cx="517" cy="308" r="0.6" fill="white"/><circle cx="574" cy="101" r="1.0" fill="white"/><circle cx="558" cy="214" r="0.6" fill="white"/><circle cx="459" cy="301" r="0.8" fill="white"/><circle cx="6" cy="388" r="0.6" fill="white"/><circle cx="432" cy="174" r="0.8" fill="white"/><circle cx="159" cy="110" r="0.8" fill="white"/><circle cx="104" cy="47" r="0.8" fill="white"/><circle cx="99" cy="183" r="0.8" fill="white"/><circle cx="270" cy="22" r="1.0" fill="white"/><circle cx="470" cy="274" r="0.6" fill="white"/><circle cx="387" cy="40" r="1.0" fill="white"/><circle cx="300" cy="321" r="1.0" fill="white"/><circle cx="370" cy="295" r="0.6" fill="white"/><circle cx="71" cy="23" r="1.0" fill="white"/><circle cx="233" cy="395" r="0.8" fill="white"/><circle cx="81" cy="119" r="0.6" fill="white"/><circle cx="389" cy="142" r="0.8" fill="white"/><circle cx="373" cy="83" r="0.8" fill="white"/><circle cx="363" cy="107" r="1.0" fill="white"/><circle cx="273" cy="359" r="1.0" fill="white"/><circle cx="73" cy="311" r="1.0" fill="white"/><circle cx="175" cy="273" r="1.0" fill="white"/><circle cx="250" cy="83" r="0.8" fill="white"/><circle cx="388" cy="138" r="1.0" fill="white"/><circle cx="570" cy="112" r="1.0" fill="white"/><circle cx="332" cy="393" r="0.6" fill="white"/><circle cx="234" cy="16" r="0.8" fill="white"/><circle cx="410" cy="137" r="0.6" fill="white"/><circle cx="216" cy="290" r="1.0" fill="white"/><circle cx="322" cy="108" r="1.0" fill="white"/><circle cx="511" cy="202" r="1.0" fill="white"/><circle cx="469" cy="73" r="0.8" fill="white"/><circle cx="142" cy="126" r="1.0" fill="white"/><circle cx="574" cy="275" r="0.8" fill="white"/><circle cx="598" cy="219" r="1.0" fill="white"/><circle cx="408" cy="185" r="0.6" fill="white"/><circle cx="141" cy="260" r="0.8" fill="white"/><circle cx="93" cy="386" r="0.6" fill="white"/><circle cx="112" cy="78" r="1.0" fill="white"/><circle cx="163" cy="348" r="0.8" fill="white"/><circle cx="65" cy="197" r="0.8" fill="white"/><circle cx="479" cy="270" r="0.8" fill="white"/><circle cx="566" cy="5" r="1.0" fill="white"/><circle cx="117" cy="349" r="1.0" fill="white"/><circle cx="273" cy="393" r="1.0" fill="white"/><circle cx="348" cy="57" r="0.8" fill="white"/><circle cx="445" cy="80" r="0.8" fill="white"/><circle cx="3" cy="369" r="1.0" fill="white"/><circle cx="269" cy="256" r="0.6" fill="white"/><circle cx="519" cy="54" r="1.0" fill="white"/><circle cx="305" cy="327" r="1.0" fill="white"/><circle cx="203" cy="78" r="0.8" fill="white"/><circle cx="165" cy="276" r="1.0" fill="white"/><circle cx="0" cy="306" r="0.8" fill="white"/><circle cx="500" cy="9" r="0.6" fill="white"/><circle cx="371" cy="157" r="0.6" fill="white"/><circle cx="59" cy="123" r="1.0" fill="white"/><circle cx="80" cy="43" r="1.0" fill="white"/><circle cx="497" cy="35" r="1.0" fill="white"/><circle cx="128" cy="65" r="1.0" fill="white"/><circle cx="486" cy="281" r="0.6" fill="white"/><circle cx="271" cy="270" r="1.0" fill="white"/><circle cx="433" cy="108" r="1.0" fill="white"/><circle cx="205" cy="365" r="0.8" fill="white"/><circle cx="408" cy="343" r="1.0" fill="white"/><circle cx="382" cy="224" r="1.0" fill="white"/><circle cx="462" cy="61" r="0.6" fill="white"/><circle cx="230" cy="32" r="0.8" fill="white"/><circle cx="21" cy="301" r="1.0" fill="white"/><circle cx="235" cy="301" r="0.6" fill="white"/><circle cx="7" cy="36" r="1.0" fill="white"/><circle cx="60" cy="117" r="0.6" fill="white"/><circle cx="32" cy="169" r="0.6" fill="white"/><circle cx="526" cy="121" r="0.8" fill="white"/><circle cx="497" cy="109" r="1.0" fill="white"/><circle cx="135" cy="370" r="1.0" fill="white"/><circle cx="590" cy="242" r="0.6" fill="white"/><circle cx="484" cy="208" r="0.6" fill="white"/><circle cx="96" cy="49" r="1.0" fill="white"/><circle cx="441" cy="181" r="0.8" fill="white"/><circle cx="420" cy="239" r="1.0" fill="white"/><circle cx="55" cy="344" r="1.0" fill="white"/><circle cx="100" cy="31" r="0.8" fill="white"/><circle cx="347" cy="55" r="0.6" fill="white"/><circle cx="196" cy="97" r="1.0" fill="white"/><circle cx="459" cy="71" r="0.8" fill="white"/><circle cx="187" cy="142" r="0.8" fill="white"/><circle cx="255" cy="38" r="0.8" fill="white"/><circle cx="563" cy="50" r="0.6" fill="white"/><circle cx="553" cy="7" r="0.6" fill="white"/><circle cx="242" cy="85" r="0.8" fill="white"/><circle cx="497" cy="246" r="0.6" fill="white"/><circle cx="410" cy="30" r="0.6" fill="white"/><circle cx="388" cy="1" r="0.8" fill="white"/><circle cx="271" cy="232" r="0.8" fill="white"/><circle cx="433" cy="356" r="1.0" fill="white"/><circle cx="569" cy="338" r="1.0" fill="white"/><circle cx="498" cy="79" r="0.6" fill="white"/><circle cx="303" cy="111" r="0.6" fill="white"/><circle cx="593" cy="376" r="1.0" fill="white"/><circle cx="62" cy="382" r="0.8" fill="white"/><circle cx="58" cy="25" r="1.0" fill="white"/><circle cx="488" cy="257" r="1.0" fill="white"/><circle cx="161" cy="29" r="1.0" fill="white"/><circle cx="82" cy="95" r="0.6" fill="white"/><circle cx="69" cy="345" r="0.6" fill="white"/><circle cx="413" cy="61" r="1.0" fill="white"/><circle cx="252" cy="296" r="1.0" fill="white"/><circle cx="40" cy="317" r="0.6" fill="white"/><circle cx="429" cy="336" r="1.0" fill="white"/><circle cx="578" cy="267" r="0.8" fill="white"/><circle cx="267" cy="104" r="1.0" fill="white"/><circle cx="321" cy="122" r="0.8" fill="white"/></g></svg>