<svg xmlns="http://www.w3.org/2000/svg" viewBox="0 0 600 400" width="600" height="400" preserveAspectRatio="xMidYMid slice"><defs><linearGradient id="bg" x1="0" y1="0" x2="0" y2="1"><stop offset="0%" stop-color="#241B40"/><stop offset="50%" stop-color="#7A2E5A"/><stop offset="100%" stop-color="#FF8C42"/></linearGradient></defs><rect width="600" height="400" fill="url(#bg)"/><rect x="90.0" y="140.0" width="6" height="160.0" fill="#D7FF1E"/><rect x="504.0" y="140.0" width="6" height="160.0" fill="#D7FF1E"/><rect x="90.0" y="140.0" width="420.0" height="6" fill="#D7FF1E"/><text x="300.0" y="184.0" fill="#0A0A0A" text-anchor="middle" style="font-family:Barlow Condensed,Impact,sans-serif;font-weight:800;font-style:italic;font-size:32px;letter-spacing:0.05em">FINISH</text><rect x="90.0" y="168.0" width="420.0" height="22" fill="#D7FF1E" opacity="0.2"/><rect x="0" y="300.0" width="600" height="100.0" fill="#0A0A0A"/><circle cx="300.0" cy="257.5" r="10.4" fill="#A87045"/><rect x="292.2" y="266.6" width="15.6" height="52.0" fill="#A87045" rx="5.2"/><line x1="300.0" y1="277.0" x2="332.5" y2="238.0" stroke="#A87045" stroke-width="9.100000000000001" stroke-linecap="round"/><line x1="300.0" y1="277.0" x2="267.5" y2="238.0" stroke="#A87045" stroke-width="9.100000000000001" stroke-linecap="round"/><line x1="300.0" y1="316.0" x2="323.4" y2="361.5" stroke="#A87045" stroke-width="9.100000000000001" stroke-linecap="round"/><line x1="300.0" y1="316.0" x2="276.6" y2="361.5" stroke="#A87045" stroke-width="9.100000000000001" stroke-linecap="round"/><circle cx="60.0" cy="333.75" r="3.6" fill="#5C3A1E"/><rect x="57.75" y="336.9" width="4.5" height="18.0" fill="#5C3A1E" rx="1.8"/><line x1="60.0" y1="342.75" x2="63.099999999999994" y2="354.25" stroke="#5C3A1E" stroke-width="2.6999999999999997" stroke-linecap="round"/><line x1="60.0" y1="342.75" x2="56.9" y2="354.25" stroke="#5C3A1E" stroke-width="2.6999999999999997" stroke-linecap="round"/><line x1="60.0" y1="354.0" x2="69.75" y2="369.75" stroke="#5C3A1E" stroke-width="3.1500000000000004" stroke-linecap="round"/><line x1="60.0" y1="354.0" x2="50.25" y2="369.75" stroke="#5C3A1E" stroke-width="3.1500000000000004" stroke-linecap="round"/><circle cx="108.0" cy="333.75" r="3.6" fill="#3A2818"/><rect x="105.75" y="336.9" width="4.5" height="18.0" fill="#3A2818" rx="1.8"/><line x1="108.0" y1="342.75" x2="111.1" y2="354.25" stroke="#3A2818" stroke-width="2.6999999999999997" stroke-linecap="round"/><line x1="108.0" y1="342.75" x2="104.9" y2="354.25" stroke="#3A2818" stroke-width="2.6999999999999997" stroke-linecap="round"/><line x1="108.0" y1="354.0" x2="117.75" y2="369.75" stroke="#3A2818" stroke-width="3.1500000000000004" stroke-linecap="round"/><line x1="108.0" y1="354.0" x2="98.25" y2="369.75" stroke="#3A2818" stroke-width="3.1500000000000004" stroke-linecap="round"/><circle cx="150.0" cy="333.75" r="3.6" fill="#7A4F32"/><rect x="147.75" y="336.9" width="4.5" height="18.0" fill="#7A4F32" rx="1.8"/><line x1="150.0" y1="342.75" x2="153.1" y2="354.25" stroke="#7A4F32" stroke-width="2.6999999999999997" stroke-linecap="round"/><line x1="150.0" y1="342.75" x2="146.9" y2="354.25" stroke="#7A4F32" stroke-width="2.6999999999999997" stroke-linecap="round"/><line x1="150.0" y1="354.0" x2="159.75" y2="369.75" stroke="#7A4F32" stroke-width="3.1500000000000004" stroke-linecap="round"/><line x1="150.0" y1="354.0" x2="140.25" y2="369.75" stroke="#7A4F32" stroke-width="3.1500000000000004" stroke-linecap="round"/><circle cx="450.0" cy="333.75" r="3.6" fill="#D9A57E"/><rect x="447.75" y="336.9" width="4.5" height="18.0" fill="#D9A57E" rx="1.8"/><line x1="450.0" y1="342.75" x2="453.1" y2="354.25" stroke="#D9A57E" stroke-width="2.6999999999999997" stroke-linecap="round"/><line x1="450.0" y1="342.75" x2="446.9" y2="354.25" stroke="#D9A57E" stroke-width="2.6999999999999997" stroke-linecap="round"/><line x1="450.0" y1="354.0" x2="459.75" y2="369.75" stroke="#D9A57E" stroke-width="3.1500000000000004" stroke-linecap="round"/><line x1="450.0" y1="354.0" x2="440.25" y2="369.75" stroke="#D9A57E" stroke-width="3.1500000000000004" stroke-linecap="round"/><circle cx="491.99999999999994" cy="333.75" r="3.6" fill="#5A3820"/><rect x="489.74999999999994" y="336.9" width="4.5" height="18.0" fill="#5A3820" rx="1.8"/><line x1="491.99999999999994" y1="342.75" x2="495.09999999999997" y2="354.25" stroke="#5A3820" stroke-width="2.6999999999999997" stroke-linecap="round"/><line x1="491.99999999999994" y1="342.75" x2="488.8999999999999" y2="354.25" stroke="#5A3820" stroke-width="2.6999999999999997" stroke-linecap="round"/><line x1="491.99999999999994" y1="354.0" x2="501.74999999999994" y2="369.75" stroke="#5A3820" stroke-width="3.1500000000000004" stroke-linecap="round"/><line x1="491.99999999999994" y1="354.0" x2="482.24999999999994" y2="369.75" stroke="#5A3820" stroke-width="3.1500000000000004" stroke-linecap="round"/><circle cx="540.0" cy="333.75" r="3.6" fill="#C8956A"/><rect x="537.75" y="336.9" width="4.5" height="18.0" fill="#C8956A" rx="1.8"/><line x1="540.0" y1="342.75" x2="543.1" y2="354.25" stroke="#C8956A" stroke-width="2.6999999999999997" stroke-linecap="round"/><line x1="540.0" y1="342.75" x2="536.9" y2="354.25" stroke="#C8956A" stroke-width="2.6999999999999997" stroke-linecap="round"/><line x1="540.0" y1="354.0" x2="549.75" y2="369.75" stroke="#C8956A" stroke-width="3.1500000000000004" stroke-linecap="round"/><line x1="540.0" y1="354.0" x2="530.25" y2="369.75" stroke="#C8956A" stroke-width="3.1500000000000004" stroke-linecap="round"/><rect x="0" y="340" width="600" height="60" fill="#0A0A0A" opacity="0.55"/><rect x="0" y="340" width="6" height="60" fill="#D7FF1E"/><text x="20" y="372" fill="#FFFFFF" text-anchor="start" style="font-family:"Barlow Condensed","Helvetica Neue Condensed",Impact,sans-serif;font-weight:800;font-style:italic;font-size:22px;letter-spacing:0.01em;text-transform:uppercase">FINISH</text><text x="20" y="388" fill="#FFFFFF" opacity="0.7" text-anchor="start" style="font-family:"Inter","Helvetica Neue",sans-serif;font-weight:500;font-size:11px;letter-spacing:0.12em;text-transform:uppercase">Crossing the line</text><g opacity="0.05"><circle cx="114" cy="12" r="1.0" fill="white"/><circle cx="281" cy="125" r="0.6" fill="white"/><circle cx="142" cy="377" r="0.6" fill="white"/><circle cx="558" cy="44" r="1.0" fill="white"/><circle cx="432" cy="16" r="0.6" fill="white"/><circle cx="95" cy="111" r="0.6" fill="white"/><circle cx="517" cy="308" r="0.6" fill="white"/><circle cx="574" cy="101" r="1.0" fill="white"/><circle cx="558" cy="214" r="0.6" fill="white"/><circle cx="459" cy="301" r="0.8" fill="white"/><circle cx="6" cy="388" r="0.6" fill="white"/><circle cx="432" cy="174" r="0.8" fill="white"/><circle cx="159" cy="110" r="0.8" fill="white"/><circle cx="104" cy="47" r="0.8" fill="white"/><circle cx="99" cy="183" r="0.8" fill="white"/><circle cx="270" cy="22" r="1.0" fill="white"/><circle cx="470" cy="274" r="0.6" fill="white"/><circle cx="387" cy="40" r="1.0" fill="white"/><circle cx="300" cy="321" r="1.0" fill="white"/><circle cx="370" cy="295" r="0.6" fill="white"/><circle cx="71" cy="23" r="1.0" fill="white"/><circle cx="233" cy="395" r="0.8" fill="white"/><circle cx="81" cy="119" r="0.6" fill="white"/><circle cx="389" cy="142" r="0.8" fill="white"/><circle cx="373" cy="83" r="0.8" fill="white"/><circle cx="363" cy="107" r="1.0" fill="white"/><circle cx="273" cy="359" r="1.0" fill="white"/><circle cx="73" cy="311" r="1.0" fill="white"/><circle cx="175" cy="273" r="1.0" fill="white"/><circle cx="250" cy="83" r="0.8" fill="white"/><circle cx="388" cy="138" r="1.0" fill="white"/><circle cx="570" cy="112" r="1.0" fill="white"/><circle cx="332" cy="393" r="0.6" fill="white"/><circle cx="234" cy="16" r="0.8" fill="white"/><circle cx="410" cy="137" r="0.6" fill="white"/><circle cx="216" cy="290" r="1.0" fill="white"/><circle cx="322" cy="108" r="1.0" fill="white"/><circle cx="511" cy="202" r="1.0" fill="white"/><circle cx="469" cy="73" r="0.8" fill="white"/><circle cx="142" cy="126" r="1.0" fill="white"/><circle cx="574" cy="275" r="0.8" fill="white"/><circle cx="598" cy="219" r="1.0" fill="white"/><circle cx="408" cy="185" r="0.6" fill="white"/><circle cx="141" cy="260" r="0.8" fill="white"/><circle cx="93" cy="386" r="0.6" fill="white"/><circle cx="112" cy="78" r="1.0" fill="white"/><circle cx="163" cy="348" r="0.8" fill="white"/><circle cx="65" cy="197" r="0.8" fill="white"/><circle cx="479" cy="270" r="0.8" fill="white"/><circle cx="566" cy="5" r="1.0" fill="white"/><circle cx="117" cy="349" r="1.0" fill="white"/><circle cx="273" cy="393" r="1.0" fill="white"/><circle cx="348" cy="57" r="0.8" fill="white"/><circle cx="445" cy="80" r="0.8" fill="white"/><circle cx="3" cy="369" r="1.0" fill="white"/><circle cx="269" cy="256" r="0.6" fill="white"/><circle cx="519" cy="54" r="1.0" fill="white"/><circle cx="305" cy="327" r="1.0" fill="white"/><circle cx="203" cy="78" r="0.8" fill="white"/><circle cx="165" cy="276" r="1.0" fill="white"/><circle cx="0" cy="306" r="0.8" fill="white"/><circle cx="500" cy="9" r="0.6" fill="white"/><circle cx="371" cy="157" r="0.6" fill="white"/><circle cx="59" cy="123" r="1.0" fill="white"/><circle cx="80" cy="43" r="1.0" fill="white"/><circle cx="497" cy="35" r="1.0" fill="white"/><circle cx="128" cy="65" r="1.0" fill="white"/><circle cx="486" cy="281" r="0.6" fill="white"/><circle cx="271" cy="270" r="1.0" fill="white"/><circle cx="433" cy="108" r="1.0" fill="white"/><circle cx="205" cy="365" r="0.8" fill="white"/><circle cx="408" cy="343" r="1.0" fill="white"/><circle cx="382" cy="224" r="1.0" fill="white"/><circle cx="462" cy="61" r="0.6" fill="white"/><circle cx="230" cy="32" r="0.8" fill="white"/><circle cx="21" cy="301" r="1.0" fill="white"/><circle cx="235" cy="301" r="0.6" fill="white"/><circle cx="7" cy="36" r="1.0" fill="white"/><circle cx="60" cy="117" r="0.6" fill="white"/><circle cx="32" cy="169" r="0.6" fill="white"/><circle cx="526" cy="121" r="0.8" fill="white"/><circle cx="497" cy="109" r="1.0" fill="white"/><circle cx="135" cy="370" r="1.0" fill="white"/><circle cx="590" cy="242" r="0.6" fill="white"/><circle cx="484" cy="208" r="0.6" fill="white"/><circle cx="96" cy="49" r="1.0" fill="white"/><circle cx="441" cy="181" r="0.8" fill="white"/><circle cx="420" cy="239" r="1.0" fill="white"/><circle cx="55" cy="344" r="1.0" fill="white"/><circle cx="100" cy="31" r="0.8" fill="white"/><circle cx="347" cy="55" r="0.6" fill="white"/><circle cx="196" cy="97" r="1.0" fill="white"/><circle cx="459" cy="71" r="0.8" fill="white"/><circle cx="187" cy="142" r="0.8" fill="white"/><circle cx="255" cy="38" r="0.8" fill="white"/><circle cx="563" cy="50" r="0.6" fill="white"/><circle cx="553" cy="7" r="0.6" fill="white"/><circle cx="242" cy="85" r="0.8" fill="white"/><circle cx="497" cy="246" r="0.6" fill="white"/><circle cx="410" cy="30" r="0.6" fill="white"/><circle cx="388" cy="1" r="0.8" fill="white"/><circle cx="271" cy="232" r="0.8" fill="white"/><circle cx="433" cy="356" r="1.0" fill="white"/><circle cx="569" cy="338" r="1.0" fill="white"/><circle cx="498" cy="79" r="0.6" fill="white"/><circle cx="303" cy="111" r="0.6" fill="white"/><circle cx="593" cy="376" r="1.0" fill="white"/><circle cx="62" cy="382" r="0.8" fill="white"/><circle cx="58" cy="25" r="1.0" fill="white"/><circle cx="488" cy="257" r="1.0" fill="white"/><circle cx="161" cy="29" r="1.0" fill="white"/><circle cx="82" cy="95" r="0.6" fill="white"/><circle cx="69" cy="345" r="0.6" fill="white"/><circle cx="413" cy="61" r="1.0" fill="white"/><circle cx="252" cy="296" r="1.0" fill="white"/><circle cx="40" cy="317" r="0.6" fill="white"/><circle cx="429" cy="336" r="1.0" fill="white"/><circle cx="578" cy="267" r="0.8" fill="white"/><circle cx="267" cy="104" r="1.0" fill="white"/><circle cx="321" cy="122" r="0.8" fill="white"/></g></svg>