<svg xmlns="http://www.w3.org/2000/svg" viewBox="0 0 600 400" width="600" height="400" preserveAspectRatio="xMidYMid slice"><defs><linearGradient id="bg" x1="0" y1="0" x2="0" y2="1"><stop offset="0%" stop-color="#1B1340"/><stop offset="50%" stop-color="#7A2E5A"/><stop offset="100%" stop-color="#FF8C42"/></linearGradient></defs><rect width="600" height="400" fill="url(#bg)"/><circle cx="510.0" cy="160.0" r="35" fill="#FFE69C" opacity="0.9"/><polygon points="0,220.00000000000003 300,180.0 600,200.0 600,280.0 0,280.0" fill="#0A0A0A" opacity="0.6"/><rect x="0" y="280.0" width="600" height="120.0" fill="#0A0A0A"/><path d="M223.0,310.5 L230.0,298.25 Q240.5,287.75 265.0,284.25 L289.5,279.0 Q314.0,275.5 338.5,280.75 L361.25,287.75 Q375.25,293.0 377.0,301.75 L378.75,310.5 Z" fill="#0A0A0A" stroke="#D7FF1E" stroke-width="1.5"/><path d="M361.25,287.75 L380.5,284.25 L382.25,289.5 L375.25,293.0 Z" fill="#0A0A0A" stroke="#D7FF1E" stroke-width="1.5"/><path d="M254.5,285.3 Q268.5,279.0 289.5,279.7 L317.5,279.0 Q331.5,279.7 345.5,285.3 L345.5,286.7 L254.5,286.7 Z" fill="#D7FF1E" opacity="0.25"/><circle cx="254.5" cy="312.25" r="13.299999999999999" fill="#0A0A0A" stroke="#D7FF1E" stroke-width="2"/><circle cx="254.5" cy="312.25" r="6.3" fill="#D7FF1E" opacity="0.4"/><circle cx="350.75" cy="312.25" r="13.299999999999999" fill="#0A0A0A" stroke="#D7FF1E" stroke-width="2"/><circle cx="350.75" cy="312.25" r="6.3" fill="#D7FF1E" opacity="0.4"/><line x1="301.75" y1="280.75" x2="303.5" y2="301.75" stroke="#D7FF1E" stroke-width="1.5" opacity="0.6"/><rect x="50.0" y="332.0" width="20" height="42" fill="#5C3A1E" rx="3"/><circle cx="60.0" cy="324.0" r="9" fill="#5C3A1E"/><rect x="110.0" y="333.0" width="20" height="42" fill="#A87045" rx="3"/><circle cx="120.0" cy="325.0" r="9" fill="#A87045"/><line x1="110.0" y1="341.0" x2="70.0" y2="320.0" stroke="#A87045" stroke-width="3"/><rect x="170.0" y="334.0" width="20" height="42" fill="#3A2818" rx="3"/><circle cx="180.0" cy="326.0" r="9" fill="#3A2818"/><rect x="230.0" y="342.0" width="20" height="42" fill="#D9A57E" rx="3"/><circle cx="240.0" cy="334.0" r="9" fill="#D9A57E"/><rect x="290.0" y="336.0" width="20" height="42" fill="#7A4F32" rx="3"/><circle cx="300.0" cy="328.0" r="9" fill="#7A4F32"/><rect x="350.0" y="341.0" width="20" height="42" fill="#8B5A3C" rx="3"/><circle cx="360.0" cy="333.0" r="9" fill="#8B5A3C"/><line x1="350.0" y1="349.0" x2="310.0" y2="328.0" stroke="#8B5A3C" stroke-width="3"/><rect x="410.0" y="342.0" width="20" height="42" fill="#C8956A" rx="3"/><circle cx="420.0" cy="334.0" r="9" fill="#C8956A"/><line x1="410.0" y1="350.0" x2="370.0" y2="329.0" stroke="#C8956A" stroke-width="3"/><rect x="470.0" y="338.0" width="20" height="42" fill="#5A3820" rx="3"/><circle cx="480.0" cy="330.0" r="9" fill="#5A3820"/><rect x="530.0" y="344.0" width="20" height="42" fill="#9C6E47" rx="3"/><circle cx="540.0" cy="336.0" r="9" fill="#9C6E47"/><text x="300.0" y="168.0" fill="#D7FF1E" text-anchor="middle" style="font-family:Barlow Condensed,Impact,sans-serif;font-weight:800;font-style:italic;font-size:36px;letter-spacing:0.05em">CLASS OF 2025</text><rect x="0" y="340" width="600" height="60" fill="#0A0A0A" opacity="0.55"/><rect x="0" y="340" width="6" height="60" fill="#D7FF1E"/><text x="20" y="372" fill="#FFFFFF" text-anchor="start" style="font-family:"Barlow Condensed","Helvetica Neue Condensed",Impact,sans-serif;font-weight:800;font-style:italic;font-size:22px;letter-spacing:0.01em;text-transform:uppercase">CLASS OF 2025</text><text x="20" y="388" fill="#FFFFFF" opacity="0.7" text-anchor="start" style="font-family:"Inter","Helvetica Neue",sans-serif;font-weight:500;font-size:11px;letter-spacing:0.12em;text-transform:uppercase">Group photo · Highway 154</text><g opacity="0.05"><circle cx="114" cy="12" r="1.0" fill="white"/><circle cx="281" cy="125" r="0.6" fill="white"/><circle cx="142" cy="377" r="0.6" fill="white"/><circle cx="558" cy="44" r="1.0" fill="white"/><circle cx="432" cy="16" r="0.6" fill="white"/><circle cx="95" cy="111" r="0.6" fill="white"/><circle cx="517" cy="308" r="0.6" fill="white"/><circle cx="574" cy="101" r="1.0" fill="white"/><circle cx="558" cy="214" r="0.6" fill="white"/><circle cx="459" cy="301" r="0.8" fill="white"/><circle cx="6" cy="388" r="0.6" fill="white"/><circle cx="432" cy="174" r="0.8" fill="white"/><circle cx="159" cy="110" r="0.8" fill="white"/><circle cx="104" cy="47" r="0.8" fill="white"/><circle cx="99" cy="183" r="0.8" fill="white"/><circle cx="270" cy="22" r="1.0" fill="white"/><circle cx="470" cy="274" r="0.6" fill="white"/><circle cx="387" cy="40" r="1.0" fill="white"/><circle cx="300" cy="321" r="1.0" fill="white"/><circle cx="370" cy="295" r="0.6" fill="white"/><circle cx="71" cy="23" r="1.0" fill="white"/><circle cx="233" cy="395" r="0.8" fill="white"/><circle cx="81" cy="119" r="0.6" fill="white"/><circle cx="389" cy="142" r="0.8" fill="white"/><circle cx="373" cy="83" r="0.8" fill="white"/><circle cx="363" cy="107" r="1.0" fill="white"/><circle cx="273" cy="359" r="1.0" fill="white"/><circle cx="73" cy="311" r="1.0" fill="white"/><circle cx="175" cy="273" r="1.0" fill="white"/><circle cx="250" cy="83" r="0.8" fill="white"/><circle cx="388" cy="138" r="1.0" fill="white"/><circle cx="570" cy="112" r="1.0" fill="white"/><circle cx="332" cy="393" r="0.6" fill="white"/><circle cx="234" cy="16" r="0.8" fill="white"/><circle cx="410" cy="137" r="0.6" fill="white"/><circle cx="216" cy="290" r="1.0" fill="white"/><circle cx="322" cy="108" r="1.0" fill="white"/><circle cx="511" cy="202" r="1.0" fill="white"/><circle cx="469" cy="73" r="0.8" fill="white"/><circle cx="142" cy="126" r="1.0" fill="white"/><circle cx="574" cy="275" r="0.8" fill="white"/><circle cx="598" cy="219" r="1.0" fill="white"/><circle cx="408" cy="185" r="0.6" fill="white"/><circle cx="141" cy="260" r="0.8" fill="white"/><circle cx="93" cy="386" r="0.6" fill="white"/><circle cx="112" cy="78" r="1.0" fill="white"/><circle cx="163" cy="348" r="0.8" fill="white"/><circle cx="65" cy="197" r="0.8" fill="white"/><circle cx="479" cy="270" r="0.8" fill="white"/><circle cx="566" cy="5" r="1.0" fill="white"/><circle cx="117" cy="349" r="1.0" fill="white"/><circle cx="273" cy="393" r="1.0" fill="white"/><circle cx="348" cy="57" r="0.8" fill="white"/><circle cx="445" cy="80" r="0.8" fill="white"/><circle cx="3" cy="369" r="1.0" fill="white"/><circle cx="269" cy="256" r="0.6" fill="white"/><circle cx="519" cy="54" r="1.0" fill="white"/><circle cx="305" cy="327" r="1.0" fill="white"/><circle cx="203" cy="78" r="0.8" fill="white"/><circle cx="165" cy="276" r="1.0" fill="white"/><circle cx="0" cy="306" r="0.8" fill="white"/><circle cx="500" cy="9" r="0.6" fill="white"/><circle cx="371" cy="157" r="0.6" fill="white"/><circle cx="59" cy="123" r="1.0" fill="white"/><circle cx="80" cy="43" r="1.0" fill="white"/><circle cx="497" cy="35" r="1.0" fill="white"/><circle cx="128" cy="65" r="1.0" fill="white"/><circle cx="486" cy="281" r="0.6" fill="white"/><circle cx="271" cy="270" r="1.0" fill="white"/><circle cx="433" cy="108" r="1.0" fill="white"/><circle cx="205" cy="365" r="0.8" fill="white"/><circle cx="408" cy="343" r="1.0" fill="white"/><circle cx="382" cy="224" r="1.0" fill="white"/><circle cx="462" cy="61" r="0.6" fill="white"/><circle cx="230" cy="32" r="0.8" fill="white"/><circle cx="21" cy="301" r="1.0" fill="white"/><circle cx="235" cy="301" r="0.6" fill="white"/><circle cx="7" cy="36" r="1.0" fill="white"/><circle cx="60" cy="117" r="0.6" fill="white"/><circle cx="32" cy="169" r="0.6" fill="white"/><circle cx="526" cy="121" r="0.8" fill="white"/><circle cx="497" cy="109" r="1.0" fill="white"/><circle cx="135" cy="370" r="1.0" fill="white"/><circle cx="590" cy="242" r="0.6" fill="white"/><circle cx="484" cy="208" r="0.6" fill="white"/><circle cx="96" cy="49" r="1.0" fill="white"/><circle cx="441" cy="181" r="0.8" fill="white"/><circle cx="420" cy="239" r="1.0" fill="white"/><circle cx="55" cy="344" r="1.0" fill="white"/><circle cx="100" cy="31" r="0.8" fill="white"/><circle cx="347" cy="55" r="0.6" fill="white"/><circle cx="196" cy="97" r="1.0" fill="white"/><circle cx="459" cy="71" r="0.8" fill="white"/><circle cx="187" cy="142" r="0.8" fill="white"/><circle cx="255" cy="38" r="0.8" fill="white"/><circle cx="563" cy="50" r="0.6" fill="white"/><circle cx="553" cy="7" r="0.6" fill="white"/><circle cx="242" cy="85" r="0.8" fill="white"/><circle cx="497" cy="246" r="0.6" fill="white"/><circle cx="410" cy="30" r="0.6" fill="white"/><circle cx="388" cy="1" r="0.8" fill="white"/><circle cx="271" cy="232" r="0.8" fill="white"/><circle cx="433" cy="356" r="1.0" fill="white"/><circle cx="569" cy="338" r="1.0" fill="white"/><circle cx="498" cy="79" r="0.6" fill="white"/><circle cx="303" cy="111" r="0.6" fill="white"/><circle cx="593" cy="376" r="1.0" fill="white"/><circle cx="62" cy="382" r="0.8" fill="white"/><circle cx="58" cy="25" r="1.0" fill="white"/><circle cx="488" cy="257" r="1.0" fill="white"/><circle cx="161" cy="29" r="1.0" fill="white"/><circle cx="82" cy="95" r="0.6" fill="white"/><circle cx="69" cy="345" r="0.6" fill="white"/><circle cx="413" cy="61" r="1.0" fill="white"/><circle cx="252" cy="296" r="1.0" fill="white"/><circle cx="40" cy="317" r="0.6" fill="white"/><circle cx="429" cy="336" r="1.0" fill="white"/><circle cx="578" cy="267" r="0.8" fill="white"/><circle cx="267" cy="104" r="1.0" fill="white"/><circle cx="321" cy="122" r="0.8" fill="white"/></g></svg>