<svg xmlns="http://www.w3.org/2000/svg" viewBox="0 0 800 533" width="800" height="533" preserveAspectRatio="xMidYMid slice"><defs><linearGradient id="sky2" x1="0" y1="0" x2="0" y2="1"><stop offset="0%" stop-color="#0A1230"/><stop offset="50%" stop-color="#2A1F4D"/><stop offset="100%" stop-color="#FF3B1F"/></linearGradient><radialGradient id="glow" cx="50%" cy="100%" r="70%"><stop offset="0%" stop-color="#D7FF1E"/><stop offset="40%" stop-color="#00000000"/></radialGradient></defs><rect width="800" height="533" fill="url(#sky2)"/><rect width="800" height="533" fill="url(#glow)" opacity="0.3"/><rect x="0" y="415.74" width="800" height="117.26" fill="#0A0A0A"/><path d="M220.0,359.8 L250.0,289.8 Q300.0,259.8 420.0,249.8 L530.0,269.8 L580.0,309.8 L600.0,359.8 Z" fill="#0A0A0A" stroke="#D7FF1E" stroke-width="1.5"/><path d="M270.0,284.8 Q320.0,259.8 410.0,254.8 L480.0,269.8 L460.0,294.8 L290.0,304.8 Z" fill="#D7FF1E" opacity="0.25"/><circle cx="280.0" cy="324.8" r="14.0" fill="#D7FF1E" opacity="0.9"/><circle cx="320.0" cy="319.8" r="12.0" fill="#D7FF1E" opacity="0.9"/><rect x="295.0" y="339.8" width="60.0" height="12.0" fill="#0A0A0A" stroke="#D7FF1E" stroke-width="1"/><ellipse cx="290.0" cy="369.8" rx="28.0" ry="14.0" fill="#0A0A0A" stroke="#D7FF1E" stroke-width="2"/><ellipse cx="530.0" cy="369.8" rx="28.0" ry="14.0" fill="#0A0A0A" stroke="#D7FF1E" stroke-width="2"/><rect x="0" y="0" width="800" height="80" fill="#0A0A0A" opacity="0.4"/><text x="40" y="50" fill="#D7FF1E" text-anchor="start" style="font-family:"Barlow Condensed","Helvetica Neue Condensed",Impact,sans-serif;font-weight:800;font-style:italic;font-size:42px;letter-spacing:0.01em;text-transform:uppercase">1986</text><text x="120" y="50" fill="#FFFFFF" text-anchor="start" style="font-family:"Barlow Condensed","Helvetica Neue Condensed",Impact,sans-serif;font-weight:800;font-style:italic;font-size:42px;letter-spacing:0.01em;text-transform:uppercase">944 TURBO</text><text x="40" y="75" fill="#FFFFFF" opacity="0.6" text-anchor="start" style="font-family:"Inter","Helvetica Neue",sans-serif;font-weight:500;font-size:14px;letter-spacing:0.12em;text-transform:uppercase">exterior · front 3/4</text><g opacity="0.05"><circle cx="654" cy="114" r="0.6" fill="white"/><circle cx="759" cy="281" r="0.6" fill="white"/><circle cx="228" cy="142" r="1.0" fill="white"/><circle cx="104" cy="89" r="1.0" fill="white"/><circle cx="432" cy="32" r="0.6" fill="white"/><circle cx="95" cy="223" r="0.6" fill="white"/><circle cx="517" cy="27" r="1.0" fill="white"/><circle cx="203" cy="429" r="0.6" fill="white"/><circle cx="459" cy="284" r="0.6" fill="white"/><circle cx="777" cy="163" r="1.0" fill="white"/><circle cx="432" cy="348" r="0.8" fill="white"/><circle cx="159" cy="220" r="0.8" fill="white"/><circle cx="104" cy="94" r="0.8" fill="white"/><circle cx="99" cy="367" r="0.8" fill="white"/><circle cx="618" cy="270" r="0.6" fill="white"/><circle cx="747" cy="470" r="1.0" fill="white"/><circle cx="127" cy="387" r="0.6" fill="white"/><circle cx="565" cy="300" r="1.0" fill="white"/><circle cx="633" cy="370" r="1.0" fill="white"/><circle cx="196" cy="71" r="0.6" fill="white"/><circle cx="677" cy="233" r="0.8" fill="white"/><circle cx="81" cy="238" r="0.6" fill="white"/><circle cx="389" cy="284" r="0.8" fill="white"/><circle cx="650" cy="373" r="0.6" fill="white"/><circle cx="379" cy="363" r="0.6" fill="white"/><circle cx="686" cy="273" r="1.0" fill="white"/><circle cx="699" cy="73" r="1.0" fill="white"/><circle cx="650" cy="175" r="1.0" fill="white"/><circle cx="746" cy="250" r="0.6" fill="white"/><circle cx="473" cy="388" r="0.8" fill="white"/><circle cx="655" cy="224" r="1.0" fill="white"/><circle cx="332" cy="57" r="0.6" fill="white"/><circle cx="32" cy="323" r="0.8" fill="white"/><circle cx="274" cy="67" r="0.6" fill="white"/><circle cx="580" cy="322" r="0.6" fill="white"/><circle cx="671" cy="511" r="0.8" fill="white"/><circle cx="658" cy="469" r="0.6" fill="white"/><circle cx="271" cy="142" r="0.6" fill="white"/><circle cx="762" cy="269" r="1.0" fill="white"/><circle cx="598" cy="438" r="1.0" fill="white"/><circle cx="408" cy="370" r="0.6" fill="white"/><circle cx="141" cy="521" r="0.8" fill="white"/><circle cx="93" cy="48" r="0.6" fill="white"/><circle cx="156" cy="163" r="1.0" fill="white"/><circle cx="432" cy="65" r="0.8" fill="white"/><circle cx="390" cy="479" r="1.0" fill="white"/><circle cx="257" cy="11" r="1.0" fill="white"/><circle cx="738" cy="117" r="1.0" fill="white"/><circle cx="549" cy="273" r="1.0" fill="white"/><circle cx="348" cy="114" r="0.8" fill="white"/><circle cx="445" cy="161" r="0.8" fill="white"/><circle cx="3" cy="269" r="1.0" fill="white"/><circle cx="780" cy="182" r="1.0" fill="white"/><circle cx="108" cy="305" r="1.0" fill="white"/><circle cx="519" cy="203" r="0.6" fill="white"/><circle cx="382" cy="165" r="1.0" fill="white"/><circle cx="797" cy="0" r="1.0" fill="white"/><circle cx="331" cy="500" r="0.6" fill="white"/><circle cx="114" cy="371" r="0.8" fill="white"/><circle cx="245" cy="59" r="0.6" fill="white"/><circle cx="580" cy="80" r="0.6" fill="white"/><circle cx="749" cy="497" r="0.6" fill="white"/><circle cx="778" cy="128" r="0.6" fill="white"/><circle cx="675" cy="486" r="1.0" fill="white"/><circle cx="169" cy="271" r="1.0" fill="white"/><circle cx="621" cy="433" r="0.6" fill="white"/><circle cx="552" cy="205" r="1.0" fill="white"/><circle cx="319" cy="408" r="1.0" fill="white"/><circle cx="665" cy="382" r="0.8" fill="white"/><circle cx="529" cy="462" r="0.6" fill="white"/><circle cx="253" cy="230" r="0.6" fill="white"/><circle cx="346" cy="21" r="1.0" fill="white"/><circle cx="567" cy="235" r="1.0" fill="white"/><circle cx="225" cy="7" r="0.6" fill="white"/><circle cx="724" cy="60" r="0.6" fill="white"/><circle cx="69" cy="32" r="0.8" fill="white"/><circle cx="72" cy="526" r="0.6" fill="white"/><circle cx="285" cy="497" r="0.6" fill="white"/><circle cx="552" cy="135" r="1.0" fill="white"/><circle cx="584" cy="484" r="0.6" fill="white"/><circle cx="484" cy="416" r="0.6" fill="white"/><circle cx="96" cy="99" r="1.0" fill="white"/><circle cx="441" cy="362" r="0.8" fill="white"/><circle cx="420" cy="478" r="1.0" fill="white"/><circle cx="55" cy="100" r="0.6" fill="white"/><circle cx="412" cy="347" r="0.6" fill="white"/><circle cx="254" cy="196" r="0.6" fill="white"/><circle cx="549" cy="459" r="0.6" fill="white"/><circle cx="432" cy="187" r="0.8" fill="white"/><circle cx="473" cy="255" r="0.6" fill="white"/><circle cx="453" cy="100" r="0.6" fill="white"/><circle cx="667" cy="15" r="0.6" fill="white"/><circle cx="771" cy="242" r="0.6" fill="white"/><circle cx="416" cy="497" r="0.8" fill="white"/><circle cx="218" cy="410" r="0.6" fill="white"/><circle cx="168" cy="388" r="0.6" fill="white"/><circle cx="399" cy="271" r="0.8" fill="white"/><circle cx="292" cy="433" r="1.0" fill="white"/><circle cx="748" cy="498" r="0.6" fill="white"/><circle cx="194" cy="303" r="0.6" fill="white"/><circle cx="59" cy="62" r="1.0" fill="white"/><circle cx="321" cy="58" r="0.6" fill="white"/><circle cx="598" cy="488" r="1.0" fill="white"/><circle cx="543" cy="161" r="0.6" fill="white"/><circle cx="520" cy="82" r="0.6" fill="white"/><circle cx="70" cy="69" r="1.0" fill="white"/><circle cx="240" cy="413" r="0.6" fill="white"/><circle cx="583" cy="252" r="1.0" fill="white"/><circle cx="608" cy="40" r="1.0" fill="white"/><circle cx="83" cy="429" r="1.0" fill="white"/><circle cx="597" cy="323" r="0.8" fill="white"/><circle cx="209" cy="321" r="0.6" fill="white"/><circle cx="271" cy="405" r="0.6" fill="white"/><circle cx="687" cy="307" r="0.8" fill="white"/><circle cx="323" cy="74" r="0.6" fill="white"/><circle cx="469" cy="102" r="0.6" fill="white"/><circle cx="550" cy="218" r="1.0" fill="white"/><circle cx="271" cy="135" r="0.8" fill="white"/><circle cx="70" cy="250" r="0.8" fill="white"/><circle cx="291" cy="161" r="0.8" fill="white"/></g></svg>